# xmcd
#
# Track frame offsets:
#	150
#	21326
#	35860
#	53429
#	70383
#	85766
#	106720
#	120465
#	136801
#	153513
#	168146
#	184656
#	204986
#	220089
#	237028
#	249886
#	265559
#	280715
#	293469
#	321423
#	341670
#
# Disc length: 4765 seconds
#
# Revision: 1
# Processed by: cddbd v1.5.2PL0 Copyright (c) Steve Scherf et al.
# Submitted via: audiograbber 1.83.01
#
DISCID=19129b15
DTITLE=Various Artist - Dance Hitlist 2013
DYEAR=2013
DGENRE=Dance
TTITLE0=Will.I.Am feat. Britney Spears - Scream and Shout
TTITLE1=Rihanna - Diamonds
TTITLE2=Ne-Yo - Let Me Love You (Until You Learn To Love Yourself)
TTITLE3=Justin Bieber feat. Nicki Minaj - Beauty And A Beat
TTITLE4=DJ Fresh feat.Ravaughn - The Feeling
TTITLE5=A-Trak and Zinc feat. Natalie Storm - Like The Dancefloor
TTITLE6=Dada Life - Feed The Dada
TTITLE7=Vitalic - Stamina
TTITLE8=Nause - Hungry Hearts
TTITLE9=Alesso feat. Matthew Koma - Years
TTITLE10=Blende - Fake Love
TTITLE11=Duke Dumont - The Giver
TTITLE12=Nick Curly - Underground
TTITLE13=Sub Focus feat. Alpines - Tidal Wave
TTITLE14=Drumsound and Bassline Smith - Through The Night
TTITLE15=Swedish House Mafia feat. John Martin - Don't You Worry Child
TTITLE16=Nelly Furtado - Parking Lot
TTITLE17=Sebastian Ingrosso and Tommy Trash - Reload
TTITLE18=Kid Cudi feat. MGMT and Ratatat - Pursuit Of Happiness
TTITLE19=Burns - Lies
TTITLE20=De Kraaien - Ik Vind Je Lekker
EXTD=
EXTT0=
EXTT1=
EXTT2=
EXTT3=
EXTT4=
EXTT5=
EXTT6=
EXTT7=
EXTT8=
EXTT9=
EXTT10=
EXTT11=
EXTT12=
EXTT13=
EXTT14=
EXTT15=
EXTT16=
EXTT17=
EXTT18=
EXTT19=
EXTT20=
PLAYORDER=
